<svg width="250" height="147" viewBox="0 0 250 147" fill="none" xmlns="http://www.w3.org/2000/svg">
<defs>
<clipPath id="logoClipper250">

<!-- paths -->
<path d="M167.273 19.255C167.273 29.6096 158.817 38.0099 148.377 38.0099C137.937 38.0099 129.48 29.6096 129.48 19.255C129.48 8.90033 137.937 0.5 148.377 0.5C158.817 0.5 167.273 8.90033 167.273 19.255Z" fill="#487779" stroke="#487779"/>
<mask id="path-2-inside-1_51_1899" fill="white">
<path fill-rule="evenodd" clip-rule="evenodd" d="M137.512 110.102C137.139 110.823 136.107 110.823 135.735 110.1L97.5416 35.957C97.1693 35.2342 96.1359 35.2342 95.7636 35.957L83.1781 60.3888C82.9254 60.8793 83.1178 61.4818 83.608 61.7351L86.9699 63.4725C87.4627 63.7271 87.654 64.3341 87.3965 64.8253L86.335 66.8494C86.0796 67.3365 85.4789 67.5259 84.9903 67.2734L81.6478 65.5461C81.1567 65.2923 80.5529 65.4851 80.2997 65.9765L75.1366 75.9996C74.8839 76.4901 75.0763 77.0926 75.5665 77.3459L79.2765 79.2631C79.7693 79.5178 79.9606 80.1247 79.7031 80.6159L78.6416 82.6401C78.3862 83.1271 77.7855 83.3165 77.2969 83.0641L73.6063 81.1569C73.1152 80.9031 72.5113 81.0959 72.2582 81.5873L39.5442 145.094C39.2013 145.759 39.6845 146.552 40.4332 146.552H154.512C154.512 146.552 154.512 146.552 154.512 146.552V146.552C154.512 146.552 154.512 146.552 154.512 146.552H206.615C207.364 146.552 207.847 145.758 207.503 145.092L164.351 61.6226C163.979 60.9016 162.947 60.9016 162.575 61.6226L137.512 110.102Z"/>
</mask>
<path fill-rule="evenodd" clip-rule="evenodd" d="M137.512 110.102C137.139 110.823 136.107 110.823 135.735 110.1L97.5416 35.957C97.1693 35.2342 96.1359 35.2342 95.7636 35.957L83.1781 60.3888C82.9254 60.8793 83.1178 61.4818 83.608 61.7351L86.9699 63.4725C87.4627 63.7271 87.654 64.3341 87.3965 64.8253L86.335 66.8494C86.0796 67.3365 85.4789 67.5259 84.9903 67.2734L81.6478 65.5461C81.1567 65.2923 80.5529 65.4851 80.2997 65.9765L75.1366 75.9996C74.8839 76.4901 75.0763 77.0926 75.5665 77.3459L79.2765 79.2631C79.7693 79.5178 79.9606 80.1247 79.7031 80.6159L78.6416 82.6401C78.3862 83.1271 77.7855 83.3165 77.2969 83.0641L73.6063 81.1569C73.1152 80.9031 72.5113 81.0959 72.2582 81.5873L39.5442 145.094C39.2013 145.759 39.6845 146.552 40.4332 146.552H154.512C154.512 146.552 154.512 146.552 154.512 146.552V146.552C154.512 146.552 154.512 146.552 154.512 146.552H206.615C207.364 146.552 207.847 145.758 207.503 145.092L164.351 61.6226C163.979 60.9016 162.947 60.9016 162.575 61.6226L137.512 110.102Z" fill="#487779"/>
<path d="M164.351 61.6226L165.24 61.1634L164.351 61.6226ZM162.575 61.6226L163.463 62.0819L162.575 61.6226ZM207.503 145.092L208.391 144.633L207.503 145.092ZM39.5442 145.094L40.4332 145.552L39.5442 145.094ZM73.6063 81.1569L74.0653 80.2685L73.6063 81.1569ZM72.2582 81.5873L73.1472 82.0453L72.2582 81.5873ZM78.6416 82.6401L79.5272 83.1045L78.6416 82.6401ZM77.2969 83.0641L77.756 82.1757L77.2969 83.0641ZM79.2765 79.2631L79.7356 78.3747L79.2765 79.2631ZM79.7031 80.6159L78.8174 80.1515L79.7031 80.6159ZM75.1366 75.9996L74.2476 75.5416L75.1366 75.9996ZM75.5665 77.3459L75.1074 78.2343L75.5665 77.3459ZM81.6478 65.5461L81.1887 66.4345L81.6478 65.5461ZM80.2997 65.9765L81.1887 66.4345L80.2997 65.9765ZM86.335 66.8494L87.2206 67.3138L86.335 66.8494ZM84.9903 67.2734L85.4494 66.385L84.9903 67.2734ZM86.9699 63.4725L86.5109 64.3609L86.9699 63.4725ZM87.3965 64.8253L86.5109 64.3609L87.3965 64.8253ZM83.1781 60.3888L82.2891 59.9309L83.1781 60.3888ZM83.608 61.7351L84.0671 60.8467L84.0671 60.8467L83.608 61.7351ZM135.735 110.1L134.846 110.558L135.735 110.1ZM137.512 110.102L138.401 110.561L137.512 110.102ZM97.5416 35.957L98.4306 35.499L97.5416 35.957ZM96.6526 36.4149L134.846 110.558L136.624 109.643L98.4306 35.499L96.6526 36.4149ZM84.0671 60.8467L96.6526 36.4149L94.8746 35.499L82.2891 59.9309L84.0671 60.8467ZM87.429 62.5841L84.0671 60.8467L83.1489 62.6235L86.5109 64.3609L87.429 62.5841ZM87.2206 67.3138L88.2821 65.2897L86.5109 64.3609L85.4494 66.385L87.2206 67.3138ZM81.1887 66.4345L84.5312 68.1618L85.4494 66.385L82.1069 64.6577L81.1887 66.4345ZM76.0256 76.4575L81.1887 66.4345L79.4107 65.5186L74.2476 75.5416L76.0256 76.4575ZM79.7356 78.3747L76.0256 76.4575L75.1074 78.2343L78.8174 80.1515L79.7356 78.3747ZM79.5272 83.1045L80.5887 81.0804L78.8174 80.1515L77.756 82.1757L79.5272 83.1045ZM73.1472 82.0453L76.8378 83.9525L77.756 82.1757L74.0653 80.2685L73.1472 82.0453ZM40.4332 145.552L73.1472 82.0453L71.3692 81.1294L38.6552 144.636L40.4332 145.552ZM154.512 145.552H40.4332V147.552H154.512V145.552ZM206.615 145.552H154.512V147.552H206.615V145.552ZM163.463 62.0819L206.615 145.552L208.391 144.633L165.24 61.1634L163.463 62.0819ZM138.401 110.561L163.463 62.0819L161.686 61.1634L136.624 109.643L138.401 110.561ZM165.24 61.1634C164.494 59.7214 162.432 59.7213 161.686 61.1634L163.463 62.0819L163.463 62.0819L165.24 61.1634ZM206.615 147.552C208.113 147.552 209.08 145.964 208.391 144.633L206.615 145.552L206.615 145.552V147.552ZM155.399 146.09C155.724 146.715 155.308 147.552 154.512 147.552V145.552C153.716 145.552 153.3 146.388 153.625 147.013L155.399 146.09ZM154.512 147.552C155.262 147.552 155.745 146.756 155.399 146.09L153.625 147.013C153.279 146.347 153.762 145.552 154.512 145.552V147.552ZM38.6552 144.636C37.9695 145.967 38.9359 147.552 40.4332 147.552V145.552L40.4332 145.552L38.6552 144.636ZM74.0653 80.2685C73.0832 79.7609 71.8755 80.1465 71.3692 81.1294L73.1472 82.0453L73.1472 82.0453L74.0653 80.2685ZM77.756 82.1757L77.756 82.1757L76.8378 83.9525C77.8149 84.4574 79.0164 84.0786 79.5272 83.1045L77.756 82.1757ZM78.8174 80.1515L78.8174 80.1515L80.5887 81.0804C81.1038 80.098 80.7211 78.884 79.7356 78.3747L78.8174 80.1515ZM74.2476 75.5416C73.7422 76.5227 74.127 77.7277 75.1074 78.2343L76.0256 76.4575L76.0256 76.4575L74.2476 75.5416ZM82.1069 64.6577C81.1247 64.1501 79.917 64.5358 79.4107 65.5186L81.1887 66.4345L81.1887 66.4345L82.1069 64.6577ZM85.4494 66.385L85.4494 66.385L84.5312 68.1618C85.5083 68.6667 86.7098 68.2879 87.2206 67.3138L85.4494 66.385ZM86.5109 64.3609L86.5109 64.3609L88.2821 65.2897C88.7972 64.3073 88.4145 63.0933 87.429 62.5841L86.5109 64.3609ZM82.2891 59.9309C81.7838 60.9119 82.1685 62.1169 83.1489 62.6235L84.0671 60.8467L84.0671 60.8467L82.2891 59.9309ZM134.846 110.558C135.59 112.003 137.654 112.004 138.401 110.561L136.624 109.643L136.624 109.643L134.846 110.558ZM98.4306 35.499C97.686 34.0535 95.6193 34.0535 94.8746 35.499L96.6526 36.4149L96.6526 36.4149L98.4306 35.499Z" fill="#487779" mask="url(#path-2-inside-1_51_1899)"/>
<path fill-rule="evenodd" clip-rule="evenodd" d="M232.759 144.397C232.759 144.12 232.535 143.897 232.259 143.897H224.638C224.362 143.897 224.138 144.12 224.138 144.397V144.397C224.138 144.673 224.362 144.897 224.638 144.897H232.259C232.535 144.897 232.759 144.673 232.759 144.397V144.397ZM237.069 144.397C237.069 144.673 237.293 144.897 237.569 144.897H249.5C249.776 144.897 250 144.673 250 144.397V144.397C250 144.12 249.776 143.897 249.5 143.897H237.569C237.293 143.897 237.069 144.12 237.069 144.397V144.397ZM0 144.397C0 144.12 0.223858 143.897 0.500001 143.897H219.328C219.604 143.897 219.828 144.12 219.828 144.397V144.397C219.828 144.673 219.604 144.897 219.328 144.897H0.5C0.223858 144.897 0 144.673 0 144.397V144.397Z" fill="#487779"/>

</clipPath>
</defs>
</svg>
