<svg width="100" height="59" viewBox="0 0 100 59" fill="none" xmlns="http://www.w3.org/2000/svg">
<defs>
<clipPath id="logoClipper100">

<!-- paths -->
<path d="M66.6093 7.70199C66.6093 11.6761 63.363 14.904 59.3507 14.904C55.3384 14.904 52.0921 11.6761 52.0921 7.70199C52.0921 3.72789 55.3384 0.5 59.3507 0.5C63.363 0.5 66.6093 3.72789 66.6093 7.70199Z" fill="#487779" stroke="#487779"/>
<mask id="path-2-inside-1_51_1899" fill="white">
<path fill-rule="evenodd" clip-rule="evenodd" d="M55.5388 43.0079C55.1658 43.7295 54.1335 43.7287 53.7615 43.0066L39.55 15.4182C39.1777 14.6955 38.1443 14.6955 37.772 15.4182L33.5456 23.6228C33.293 24.1133 33.4853 24.7158 33.9755 24.9691L34.3794 25.1778C34.8017 25.3961 34.9658 25.9163 34.745 26.3373V26.3373C34.5261 26.7548 34.0112 26.9171 33.5924 26.7007L33.1928 26.4942C32.7017 26.2405 32.0979 26.4333 31.8447 26.9247L30.329 29.8671C30.0763 30.3576 30.2687 30.9601 30.7589 31.2134L31.3021 31.4941C31.7244 31.7124 31.8884 32.2326 31.6676 32.6536V32.6536C31.4487 33.0711 30.9338 33.2334 30.5151 33.017L29.9762 32.7385C29.4851 32.4847 28.8813 32.6776 28.6281 33.169L16.2683 57.1628C15.9254 57.8283 16.4086 58.6207 17.1572 58.6207H61.8048C61.8048 58.6207 61.8048 58.6207 61.8048 58.6207V58.6207C61.8048 58.6207 61.8048 58.6207 61.8048 58.6207H81.6602C82.4095 58.6207 82.8926 57.827 82.5486 57.1614L66.2735 25.68C65.9007 24.959 64.8696 24.959 64.4969 25.68L55.5388 43.0079Z"/>
</mask>
<path fill-rule="evenodd" clip-rule="evenodd" d="M55.5388 43.0079C55.1658 43.7295 54.1335 43.7287 53.7615 43.0066L39.55 15.4182C39.1777 14.6955 38.1443 14.6955 37.772 15.4182L33.5456 23.6228C33.293 24.1133 33.4853 24.7158 33.9755 24.9691L34.3794 25.1778C34.8017 25.3961 34.9658 25.9163 34.745 26.3373V26.3373C34.5261 26.7548 34.0112 26.9171 33.5924 26.7007L33.1928 26.4942C32.7017 26.2405 32.0979 26.4333 31.8447 26.9247L30.329 29.8671C30.0763 30.3576 30.2687 30.9601 30.7589 31.2134L31.3021 31.4941C31.7244 31.7124 31.8884 32.2326 31.6676 32.6536V32.6536C31.4487 33.0711 30.9338 33.2334 30.5151 33.017L29.9762 32.7385C29.4851 32.4847 28.8813 32.6776 28.6281 33.169L16.2683 57.1628C15.9254 57.8283 16.4086 58.6207 17.1572 58.6207H61.8048C61.8048 58.6207 61.8048 58.6207 61.8048 58.6207V58.6207C61.8048 58.6207 61.8048 58.6207 61.8048 58.6207H81.6602C82.4095 58.6207 82.8926 57.827 82.5486 57.1614L66.2735 25.68C65.9007 24.959 64.8696 24.959 64.4969 25.68L55.5388 43.0079Z" fill="#487779"/>
<path d="M66.2735 25.68L67.1618 25.2208L66.2735 25.68ZM64.4969 25.68L63.6085 25.2208L64.4969 25.68ZM82.5486 57.1614L83.4369 56.7022L83.4369 56.7022L82.5486 57.1614ZM16.2683 57.1628L15.3793 56.7049L16.2683 57.1628ZM29.9762 32.7385L29.5171 33.6269L29.9762 32.7385ZM28.6281 33.169L29.5171 33.6269L28.6281 33.169ZM30.5151 33.017L30.9742 32.1286L30.5151 33.017ZM31.3021 31.4941L31.7612 30.6057L31.3021 31.4941ZM30.329 29.8671L29.44 29.4092L30.329 29.8671ZM33.1928 26.4942L33.6519 25.6058L33.1928 26.4942ZM33.5924 26.7007L33.1333 27.5891L33.5924 26.7007ZM34.3794 25.1778L34.8385 24.2895L34.3794 25.1778ZM33.5456 23.6228L32.6566 23.1649L33.5456 23.6228ZM33.9755 24.9691L33.5164 25.8575L33.9755 24.9691ZM53.7615 43.0066L54.6505 42.5486L53.7615 43.0066ZM55.5388 43.0079L56.4271 43.4671L55.5388 43.0079ZM37.772 15.4182L36.8831 14.9603L37.772 15.4182ZM38.661 15.8762L52.8725 43.4645L54.6505 42.5486L40.439 14.9603L38.661 15.8762ZM34.4346 24.0807L38.661 15.8762L36.8831 14.9603L32.6566 23.1649L34.4346 24.0807ZM34.8385 24.2895L34.4346 24.0807L33.5164 25.8575L33.9203 26.0662L34.8385 24.2895ZM32.7337 27.3826L33.1333 27.5891L34.0515 25.8123L33.6519 25.6058L32.7337 27.3826ZM31.218 30.325L32.7337 27.3826L30.9558 26.4667L29.44 29.4092L31.218 30.325ZM31.7612 30.6057L31.218 30.325L30.2998 32.1018L30.843 32.3825L31.7612 30.6057ZM29.5171 33.6269L30.056 33.9054L30.9742 32.1286L30.4353 31.8501L29.5171 33.6269ZM17.1572 57.6207L29.5171 33.6269L27.7392 32.711L15.3793 56.7049L17.1572 57.6207ZM61.8048 57.6207H17.1572V59.6207H61.8048V57.6207ZM81.6602 57.6207H61.8048V59.6207H81.6602V57.6207ZM65.3852 26.1393L81.6602 57.6207L83.4369 56.7022L67.1618 25.2208L65.3852 26.1393ZM56.4271 43.4671L65.3852 26.1393L63.6085 25.2208L54.6505 42.5486L56.4271 43.4671ZM67.1618 25.2208C66.4163 23.7788 64.354 23.7788 63.6085 25.2208L65.3852 26.1393L65.3852 26.1393L67.1618 25.2208ZM81.6602 59.6207C83.1588 59.6207 84.1251 58.0334 83.4369 56.7022L81.6602 57.6207L81.6602 57.6207V59.6207ZM62.6992 58.1735C62.8447 58.4644 62.8406 58.811 62.6819 59.1009C62.516 59.404 62.1896 59.6207 61.8048 59.6207V57.6207C60.9301 57.6207 60.6386 58.5243 60.9104 59.0679L62.6992 58.1735ZM61.8048 59.6207C62.5482 59.6207 63.0317 58.8384 62.6992 58.1735L60.9104 59.0679C60.5779 58.403 61.0614 57.6207 61.8048 57.6207V59.6207ZM15.3793 56.7049C14.6936 58.0359 15.6599 59.6207 17.1572 59.6207V57.6207L17.1572 57.6207L15.3793 56.7049ZM30.4353 31.8501C29.4531 31.3426 28.2454 31.7282 27.7392 32.711L29.5171 33.6269L29.5171 33.6269L30.4353 31.8501ZM30.782 32.1892C30.8185 32.1196 30.9044 32.0925 30.9742 32.1286L30.056 33.9054C30.9633 34.3743 32.079 34.0225 32.5533 33.118L30.782 32.1892ZM30.843 32.3825C30.7726 32.3461 30.7452 32.2594 30.782 32.1892L32.5533 33.118C33.0316 32.2058 32.6762 31.0786 31.7612 30.6057L30.843 32.3825ZM29.44 29.4092C28.9347 30.3902 29.3194 31.5952 30.2998 32.1018L31.218 30.325L31.218 30.325L29.44 29.4092ZM33.6519 25.6058C32.6697 25.0983 31.4621 25.4839 30.9558 26.4667L32.7337 27.3826L32.7337 27.3826L33.6519 25.6058ZM33.8594 25.8729C33.8959 25.8033 33.9817 25.7763 34.0515 25.8123L33.1333 27.5891C34.0406 28.058 35.1563 27.7062 35.6306 26.8018L33.8594 25.8729ZM33.9203 26.0662C33.8499 26.0299 33.8226 25.9431 33.8594 25.8729L35.6306 26.8018C36.109 25.8896 35.7535 24.7623 34.8385 24.2895L33.9203 26.0662ZM32.6566 23.1649C32.1513 24.1459 32.536 25.3509 33.5164 25.8575L34.4346 24.0807L34.4346 24.0807L32.6566 23.1649ZM52.8725 43.4645C53.6165 44.9088 55.681 44.9103 56.4271 43.4671L54.6505 42.5486L54.6505 42.5486L52.8725 43.4645ZM40.439 14.9603C39.6944 13.5148 37.6277 13.5148 36.8831 14.9603L38.661 15.8762L38.661 15.8762L40.439 14.9603Z" fill="#487779" mask="url(#path-2-inside-1_51_1899)"/>
<path fill-rule="evenodd" clip-rule="evenodd" d="M93.1034 57.7586C93.1034 57.4825 92.8796 57.2586 92.6034 57.2586H90.1552C89.879 57.2586 89.6552 57.4825 89.6552 57.7586V57.7586C89.6552 58.0348 89.879 58.2586 90.1552 58.2586H92.6034C92.8796 58.2586 93.1034 58.0348 93.1034 57.7586V57.7586ZM94.8276 57.7586C94.8276 58.0348 95.0514 58.2586 95.3276 58.2586H99.5C99.7761 58.2586 100 58.0348 100 57.7586V57.7586C100 57.4825 99.7761 57.2586 99.5 57.2586H95.3276C95.0514 57.2586 94.8276 57.4825 94.8276 57.7586V57.7586ZM0 57.7586C0 57.4825 0.223858 57.2586 0.500001 57.2586H87.431C87.7072 57.2586 87.931 57.4825 87.931 57.7586V57.7586C87.931 58.0348 87.7072 58.2586 87.431 58.2586H0.5C0.223858 58.2586 0 58.0348 0 57.7586V57.7586Z" fill="#487779"/>

</clipPath>
</defs>
</svg>
