<svg width="150" height="88" viewBox="0 0 150 88" fill="none" xmlns="http://www.w3.org/2000/svg">
<defs>
<clipPath id="logoClipper150">

<!-- paths -->
<path d="M100.164 11.553C100.164 17.6539 95.1808 22.606 89.026 22.606C82.8713 22.606 77.8881 17.6539 77.8881 11.553C77.8881 5.45204 82.8713 0.5 89.026 0.5C95.1808 0.5 100.164 5.45204 100.164 11.553Z" fill="#487779" stroke="#487779"/>
<mask id="path-2-inside-1_51_1899" fill="white">
<path fill-rule="evenodd" clip-rule="evenodd" d="M82.8633 65.3725C82.4902 66.0941 81.458 66.0934 81.086 65.3712L58.8805 22.2645C58.5082 21.5417 57.4748 21.5417 57.1025 22.2645L50.0898 35.8781C49.8371 36.3687 50.0295 36.9711 50.5197 37.2245L51.8244 37.8987C52.3172 38.1533 52.5085 38.7603 52.251 39.2515L51.9856 39.7575C51.7302 40.2445 51.1295 40.434 50.6409 40.1815L49.3445 39.5115C48.8534 39.2577 48.2495 39.4505 47.9964 39.942L45.2648 45.2446C45.0122 45.7351 45.2045 46.3376 45.6947 46.5909L47.2084 47.3731C47.7011 47.6278 47.8925 48.2347 47.6349 48.7259L47.3696 49.2319C47.1142 49.7189 46.5134 49.9084 46.0249 49.6559L44.5195 48.878C44.0284 48.6242 43.4246 48.817 43.1715 49.3084L24.0269 86.4732C23.684 87.1387 24.1672 87.9311 24.9159 87.9311H92.7071C92.7072 87.9311 92.7072 87.9311 92.7072 87.9311V87.9311C92.7072 87.931 92.7072 87.931 92.7072 87.931H123.312C124.061 87.931 124.544 87.1374 124.2 86.4718L98.9661 37.6609C98.5933 36.9399 97.5622 36.9399 97.1894 37.6609L82.8633 65.3725Z"/>
</mask>
<path fill-rule="evenodd" clip-rule="evenodd" d="M82.8633 65.3725C82.4902 66.0941 81.458 66.0934 81.086 65.3712L58.8805 22.2645C58.5082 21.5417 57.4748 21.5417 57.1025 22.2645L50.0898 35.8781C49.8371 36.3687 50.0295 36.9711 50.5197 37.2245L51.8244 37.8987C52.3172 38.1533 52.5085 38.7603 52.251 39.2515L51.9856 39.7575C51.7302 40.2445 51.1295 40.434 50.6409 40.1815L49.3445 39.5115C48.8534 39.2577 48.2495 39.4505 47.9964 39.942L45.2648 45.2446C45.0122 45.7351 45.2045 46.3376 45.6947 46.5909L47.2084 47.3731C47.7011 47.6278 47.8925 48.2347 47.6349 48.7259L47.3696 49.2319C47.1142 49.7189 46.5134 49.9084 46.0249 49.6559L44.5195 48.878C44.0284 48.6242 43.4246 48.817 43.1715 49.3084L24.0269 86.4732C23.684 87.1387 24.1672 87.9311 24.9159 87.9311H92.7071C92.7072 87.9311 92.7072 87.9311 92.7072 87.9311V87.9311C92.7072 87.931 92.7072 87.931 92.7072 87.931H123.312C124.061 87.931 124.544 87.1374 124.2 86.4718L98.9661 37.6609C98.5933 36.9399 97.5622 36.9399 97.1894 37.6609L82.8633 65.3725Z" fill="#487779"/>
<path d="M98.9661 37.6609L99.8544 37.2017L98.9661 37.6609ZM97.1894 37.6609L98.0778 38.1201L97.1894 37.6609ZM124.2 86.4718L123.312 86.931L124.2 86.4718ZM24.0269 86.4732L23.1379 86.0152L24.0269 86.4732ZM44.5195 48.878L44.9786 47.9896L44.5195 48.878ZM43.1715 49.3084L42.2825 48.8505L43.1715 49.3084ZM47.3696 49.2319L46.484 48.7675L47.3696 49.2319ZM46.0249 49.6559L45.5658 50.5443L46.0249 49.6559ZM47.2084 47.3731L47.6675 46.4847L47.2084 47.3731ZM47.6349 48.7259L48.5205 49.1903L47.6349 48.7259ZM45.2648 45.2446L46.1538 45.7025L45.2648 45.2446ZM45.6947 46.5909L46.1538 45.7025L45.6947 46.5909ZM49.3445 39.5115L48.8854 40.3999L49.3445 39.5115ZM47.9964 39.942L47.1074 39.484L47.9964 39.942ZM51.9856 39.7575L51.1 39.2931L51.9856 39.7575ZM50.6409 40.1815L50.1818 41.0699L50.6409 40.1815ZM51.8244 37.8987L51.3653 38.7871L51.8244 37.8987ZM52.251 39.2515L51.3653 38.7871L52.251 39.2515ZM50.0898 35.8781L49.2008 35.4202L50.0898 35.8781ZM50.5197 37.2245L50.0606 38.1128L50.5197 37.2245ZM81.086 65.3712L81.975 64.9133L81.086 65.3712ZM82.8633 65.3725L81.975 64.9133L82.8633 65.3725ZM58.8805 22.2645L59.7695 21.8065L58.8805 22.2645ZM57.1025 22.2645L56.2136 21.8065L57.1025 22.2645ZM57.9915 22.7224L80.197 65.8292L81.975 64.9133L59.7695 21.8065L57.9915 22.7224ZM50.9787 36.3361L57.9915 22.7224L56.2136 21.8065L49.2008 35.4202L50.9787 36.3361ZM52.2835 37.0103L50.9788 36.3361L50.0606 38.1128L51.3653 38.7871L52.2835 37.0103ZM52.8712 40.2219L53.1366 39.7159L51.3653 38.7871L51.1 39.2931L52.8712 40.2219ZM48.8854 40.3999L50.1818 41.0699L51.1 39.2931L49.8035 38.6231L48.8854 40.3999ZM46.1538 45.7025L48.8854 40.3999L47.1074 39.484L44.3759 44.7866L46.1538 45.7025ZM47.6675 46.4847L46.1538 45.7025L45.2357 47.4793L46.7493 48.2615L47.6675 46.4847ZM48.2552 49.6963L48.5205 49.1903L46.7493 48.2615L46.484 48.7675L48.2552 49.6963ZM44.0604 49.7664L45.5658 50.5443L46.484 48.7675L44.9786 47.9896L44.0604 49.7664ZM24.9159 86.9311L44.0604 49.7664L42.2825 48.8505L23.1379 86.0152L24.9159 86.9311ZM92.7071 86.9311H24.9159V88.9311H92.7071V86.9311ZM123.312 86.931H92.7072V88.931H123.312V86.931ZM98.0778 38.1201L123.312 86.931L125.088 86.0126L99.8544 37.2017L98.0778 38.1201ZM83.7516 65.8317L98.0778 38.1201L96.3011 37.2017L81.975 64.9133L83.7516 65.8317ZM99.8544 37.2017C99.1089 35.7596 97.0466 35.7596 96.3011 37.2017L98.0778 38.1201L98.0778 38.1201L99.8544 37.2017ZM123.312 88.931C124.81 88.931 125.777 87.3438 125.088 86.0126L123.312 86.931L123.312 86.931V88.931ZM93.6016 87.4839C93.9053 88.0913 93.5137 88.931 92.7072 88.931V86.931C91.9006 86.931 91.509 87.7708 91.8127 88.3783L93.6016 87.4839ZM92.7071 88.9311C93.4505 88.9311 93.9341 88.1488 93.6016 87.4839L91.8127 88.3783C91.4803 87.7134 91.9638 86.9311 92.7071 86.9311V88.9311ZM23.1379 86.0152C22.4522 87.3463 23.4186 88.9311 24.9159 88.9311V86.9311L24.9159 86.9311L23.1379 86.0152ZM44.9786 47.9896C43.9964 47.482 42.7888 47.8676 42.2825 48.8505L44.0604 49.7664L44.0604 49.7664L44.9786 47.9896ZM46.484 48.7675L46.484 48.7675L45.5658 50.5443C46.5429 51.0492 47.7444 50.6704 48.2552 49.6963L46.484 48.7675ZM46.7493 48.2615L46.7493 48.2615L48.5205 49.1903C49.0357 48.208 48.6529 46.994 47.6675 46.4847L46.7493 48.2615ZM44.3759 44.7866C43.8705 45.7677 44.2553 46.9727 45.2357 47.4793L46.1538 45.7025L46.1538 45.7025L44.3759 44.7866ZM49.8035 38.6231C48.8214 38.1156 47.6137 38.5012 47.1074 39.484L48.8854 40.3999L48.8854 40.3999L49.8035 38.6231ZM51.1 39.2931L51.1 39.2931L50.1818 41.0699C51.1589 41.5748 52.3604 41.196 52.8712 40.2219L51.1 39.2931ZM51.3653 38.7871L51.3653 38.7871L53.1366 39.7159C53.6517 38.7336 53.269 37.5196 52.2835 37.0103L51.3653 38.7871ZM49.2008 35.4202C48.6954 36.4012 49.0802 37.6062 50.0606 38.1128L50.9788 36.3361L50.9787 36.3361L49.2008 35.4202ZM80.197 65.8292C80.941 67.2735 83.0055 67.275 83.7516 65.8317L81.975 64.9133L81.975 64.9133L80.197 65.8292ZM59.7695 21.8065C59.0249 20.361 56.9582 20.361 56.2136 21.8065L57.9915 22.7224L57.9915 22.7224L59.7695 21.8065Z" fill="#487779" mask="url(#path-2-inside-1_51_1899)"/>
<path fill-rule="evenodd" clip-rule="evenodd" d="M139.655 86.638C139.655 86.3618 139.431 86.138 139.155 86.138H134.983C134.707 86.138 134.483 86.3618 134.483 86.638V86.638C134.483 86.9141 134.707 87.138 134.983 87.138H139.155C139.431 87.138 139.655 86.9141 139.655 86.638V86.638ZM142.241 86.638C142.241 86.9141 142.465 87.138 142.741 87.138H149.5C149.776 87.138 150 86.9141 150 86.638V86.638C150 86.3618 149.776 86.138 149.5 86.138H142.741C142.465 86.138 142.241 86.3618 142.241 86.638V86.638ZM0 86.638C0 86.3618 0.223858 86.138 0.500001 86.138H131.397C131.673 86.138 131.897 86.3618 131.897 86.638V86.638C131.897 86.9141 131.673 87.138 131.397 87.138H0.5C0.223858 87.138 0 86.9141 0 86.638V86.638Z" fill="#487779"/>

</clipPath>
</defs>
</svg>
