<svg width="200" height="118" viewBox="0 0 200 118" fill="none" xmlns="http://www.w3.org/2000/svg">
<defs>
<clipPath id="logoClipper200">

<!-- paths -->
<path d="M133.719 15.404C133.719 23.6318 126.999 30.3079 118.701 30.3079C110.404 30.3079 103.684 23.6318 103.684 15.404C103.684 7.17618 110.404 0.5 118.701 0.5C126.999 0.5 133.719 7.17618 133.719 15.404Z" fill="#487779" stroke="#487779"/>
<mask id="path-2-inside-1_51_1899" fill="white">
<path fill-rule="evenodd" clip-rule="evenodd" d="M110.188 87.7371C109.815 88.4587 108.782 88.458 108.41 87.7358L78.211 29.1107C77.8387 28.388 76.8054 28.388 76.4331 29.1107L66.6339 48.1335C66.3812 48.624 66.5736 49.2265 67.0638 49.4798L69.3972 50.6856C69.8899 50.9402 70.0813 51.5472 69.8237 52.0384L69.1603 53.3035C68.9049 53.7905 68.3042 53.9799 67.8156 53.7275L65.4961 52.5288C65.005 52.275 64.4012 52.4678 64.148 52.9593L60.2007 60.6221C59.948 61.1126 60.1404 61.7151 60.6306 61.9684L63.2424 63.3181C63.7352 63.5728 63.9266 64.1797 63.669 64.6709L63.0056 65.936C62.7502 66.423 62.1494 66.6124 61.6609 66.36L59.0629 65.0174C58.5718 64.7636 57.968 64.9564 57.7148 65.4479L31.7855 115.784C31.4427 116.449 31.9258 117.241 32.6745 117.241H123.61C123.61 117.241 123.61 117.241 123.61 117.241V117.241C123.61 117.241 123.61 117.241 123.61 117.241H164.963C165.712 117.241 166.196 116.448 165.852 115.782L131.659 49.6418C131.286 48.9207 130.255 48.9207 129.882 49.6418L110.188 87.7371Z"/>
</mask>
<path fill-rule="evenodd" clip-rule="evenodd" d="M110.188 87.7371C109.815 88.4587 108.782 88.458 108.41 87.7358L78.211 29.1107C77.8387 28.388 76.8054 28.388 76.4331 29.1107L66.6339 48.1335C66.3812 48.624 66.5736 49.2265 67.0638 49.4798L69.3972 50.6856C69.8899 50.9402 70.0813 51.5472 69.8237 52.0384L69.1603 53.3035C68.9049 53.7905 68.3042 53.9799 67.8156 53.7275L65.4961 52.5288C65.005 52.275 64.4012 52.4678 64.148 52.9593L60.2007 60.6221C59.948 61.1126 60.1404 61.7151 60.6306 61.9684L63.2424 63.3181C63.7352 63.5728 63.9266 64.1797 63.669 64.6709L63.0056 65.936C62.7502 66.423 62.1494 66.6124 61.6609 66.36L59.0629 65.0174C58.5718 64.7636 57.968 64.9564 57.7148 65.4479L31.7855 115.784C31.4427 116.449 31.9258 117.241 32.6745 117.241H123.61C123.61 117.241 123.61 117.241 123.61 117.241V117.241C123.61 117.241 123.61 117.241 123.61 117.241H164.963C165.712 117.241 166.196 116.448 165.852 115.782L131.659 49.6418C131.286 48.9207 130.255 48.9207 129.882 49.6418L110.188 87.7371Z" fill="#487779"/>
<path d="M131.659 49.6418L132.547 49.1825L131.659 49.6418ZM129.882 49.6418L130.77 50.101L129.882 49.6418ZM165.852 115.782L164.963 116.241L165.852 115.782ZM59.0629 65.0174L58.6038 65.9058L59.0629 65.0174ZM57.7148 65.4479L56.8258 64.9899L57.7148 65.4479ZM63.0056 65.936L63.8912 66.4004L63.0056 65.936ZM61.6609 66.36L61.2018 67.2484L61.6609 66.36ZM63.2424 63.3181L63.7015 62.4297L63.2424 63.3181ZM63.669 64.6709L62.7834 64.2065L63.669 64.6709ZM60.2007 60.6221L61.0897 61.08L60.2007 60.6221ZM60.6306 61.9684L60.1715 62.8568L60.6306 61.9684ZM65.4961 52.5288L65.037 53.4172L65.4961 52.5288ZM64.148 52.9593L63.259 52.5013L64.148 52.9593ZM69.1603 53.3035L68.2747 52.8391L69.1603 53.3035ZM67.8156 53.7275L67.3565 54.6158L67.8156 53.7275ZM69.3972 50.6856L68.9381 51.574L69.3972 50.6856ZM69.8237 52.0384L70.7093 52.5028L69.8237 52.0384ZM66.6339 48.1335L67.5229 48.5914L66.6339 48.1335ZM67.0638 49.4798L66.6047 50.3682L67.0638 49.4798ZM108.41 87.7358L109.299 87.2779L108.41 87.7358ZM110.188 87.7371L109.299 87.2779L110.188 87.7371ZM76.4331 29.1107L77.322 29.5687L76.4331 29.1107ZM77.322 29.5687L107.521 88.1938L109.299 87.2779L79.1 28.6528L77.322 29.5687ZM67.5229 48.5914L77.322 29.5687L75.5441 28.6528L65.7449 47.6755L67.5229 48.5914ZM69.8563 49.7972L67.5229 48.5914L66.6047 50.3682L68.9381 51.574L69.8563 49.7972ZM70.0459 53.7679L70.7093 52.5028L68.9381 51.574L68.2747 52.8391L70.0459 53.7679ZM65.037 53.4172L67.3565 54.6158L68.2747 52.8391L65.9552 51.6404L65.037 53.4172ZM61.0897 61.08L65.037 53.4172L63.259 52.5013L59.3117 60.1641L61.0897 61.08ZM63.7015 62.4297L61.0897 61.08L60.1715 62.8568L62.7834 64.2065L63.7015 62.4297ZM63.8912 66.4004L64.5546 65.1353L62.7834 64.2065L62.12 65.4716L63.8912 66.4004ZM58.6038 65.9058L61.2018 67.2484L62.12 65.4716L59.522 64.129L58.6038 65.9058ZM32.6745 116.241L58.6038 65.9058L56.8258 64.9899L30.8965 115.326L32.6745 116.241ZM123.61 116.241H32.6745V118.241H123.61V116.241ZM164.963 116.241H123.61V118.241H164.963V116.241ZM130.77 50.101L164.963 116.241L166.74 115.323L132.547 49.1825L130.77 50.101ZM111.076 88.1964L130.77 50.101L128.994 49.1825L109.299 87.2779L111.076 88.1964ZM132.547 49.1825C131.801 47.7405 129.739 47.7405 128.994 49.1825L130.77 50.101L130.77 50.101L132.547 49.1825ZM164.963 118.241C166.462 118.241 167.428 116.654 166.74 115.323L164.963 116.241L164.963 116.241V118.241ZM124.504 116.794C124.838 117.463 124.349 118.241 123.61 118.241V116.241C122.87 116.241 122.381 117.02 122.715 117.689L124.504 116.794ZM123.61 118.241C124.353 118.241 124.836 117.459 124.504 116.794L122.715 117.689C122.383 117.024 122.866 116.241 123.61 116.241V118.241ZM30.8965 115.326C30.2109 116.657 31.1772 118.241 32.6745 118.241V116.241L32.6745 116.241L30.8965 115.326ZM59.522 64.129C58.5398 63.6215 57.3321 64.0071 56.8258 64.9899L58.6038 65.9058L58.6038 65.9058L59.522 64.129ZM62.12 65.4716L62.12 65.4716L61.2018 67.2484C62.1789 67.7533 63.3804 67.3745 63.8912 66.4004L62.12 65.4716ZM62.7834 64.2065L62.7834 64.2065L64.5546 65.1353C65.0698 64.153 64.687 62.939 63.7015 62.4297L62.7834 64.2065ZM59.3117 60.1641C58.8064 61.1452 59.1911 62.3502 60.1715 62.8568L61.0897 61.08L61.0897 61.08L59.3117 60.1641ZM65.9552 51.6404C64.973 51.1329 63.7653 51.5185 63.259 52.5013L65.037 53.4172L65.037 53.4172L65.9552 51.6404ZM68.2747 52.8391L68.2747 52.8391L67.3565 54.6158C68.3337 55.1208 69.5351 54.742 70.0459 53.7679L68.2747 52.8391ZM68.9381 51.574L68.9381 51.574L70.7093 52.5028C71.2245 51.5205 70.8417 50.3065 69.8563 49.7972L68.9381 51.574ZM65.7449 47.6755C65.2396 48.6566 65.6243 49.8616 66.6047 50.3682L67.5229 48.5914L67.5229 48.5914L65.7449 47.6755ZM107.521 88.1938C108.265 89.6381 110.33 89.6396 111.076 88.1964L109.299 87.2779L109.299 87.2779L107.521 88.1938ZM79.1 28.6528C78.3554 27.2073 76.2887 27.2073 75.5441 28.6528L77.322 29.5687L77.322 29.5687L79.1 28.6528Z" fill="#487779" mask="url(#path-2-inside-1_51_1899)"/>
<path fill-rule="evenodd" clip-rule="evenodd" d="M186.207 115.517C186.207 115.241 185.983 115.017 185.707 115.017H179.81C179.534 115.017 179.31 115.241 179.31 115.517V115.517C179.31 115.793 179.534 116.017 179.81 116.017H185.707C185.983 116.017 186.207 115.793 186.207 115.517V115.517ZM189.655 115.517C189.655 115.793 189.879 116.017 190.155 116.017H199.5C199.776 116.017 200 115.793 200 115.517V115.517C200 115.241 199.776 115.017 199.5 115.017H190.155C189.879 115.017 189.655 115.241 189.655 115.517V115.517ZM0 115.517C0 115.241 0.223858 115.017 0.500001 115.017H175.362C175.638 115.017 175.862 115.241 175.862 115.517V115.517C175.862 115.793 175.638 116.017 175.362 116.017H0.5C0.223858 116.017 0 115.793 0 115.517V115.517Z" fill="#487779"/>

</clipPath>
</defs>
</svg>
